<svg xmlns="http://www.w3.org/2000/svg" viewBox="0 0 256 256">
  <path d="M 219.7 39.7 Q 224.8 34.6 224.8 41.8 L 224.8 164.0 Q 224.8 168.1 221.9 171.0 L 163.7 229.2 Q 158.5 234.4 158.5 227.1 L 158.5 178.5 Q 158.5 166.0 149.8 157.3 L 131.1 138.6 Q 125.9 133.4 131.1 128.3 Z" fill="#0293F0"/>
  <path d="M 144.1 15.4 Q 149.2 10.2 149.2 17.5 L 149.2 88.9 Q 149.2 93.1 146.3 96.0 L 115.2 127.1 Q 109.4 132.9 115.2 138.8 L 146.3 169.8 Q 149.2 172.8 149.2 176.9 L 149.2 238.5 Q 149.2 245.8 144.1 240.6 L 36.3 132.9 Q 31.2 127.7 36.3 122.6 Z" fill="#00A4A8"/>
</svg>